<svg data-name="Livello 1" xmlns="http://www.w3.org/2000/svg" viewBox="0 0 565.25 562.914"><path d="M548.435 274.183c7.841-6.839 12.83-16.45 12.273-26.839-.811-15.104-7.694-27.51-21.513-38.522-10.417-8.3-12.994-14.968-10.155-28.15 6.85-31.81-5.541-53.113-36.556-62.573-11.445-3.49-20.282-12.656-22.295-24.451-6.265-36.694-32.088-50.716-67.45-38.368-8.859 3.093-12.776 6.524-16.736-6.845-10.767-36.342-33.628-46.214-67.432-29.805-16.421 7.972-27.595 9.224-43.488-3.857-19.614-16.143-44.857-12.758-60.732 6.624-.567.692-1.125 1.334-1.686 1.981 7.528 5.038 11.505 14.09 10.97 26.552a18.677 18.677 0 009.904 17.006c16.848 9.38 21.387 23.317 13.425 40.953-3.3 7.31-2.636 11.509 2.382 17.638 6.656 8.13 9.106 16.206 7.687 25.089-.975 6.11-5.079 11.073-10.493 14.068-12.669 7.009-4.746 21.655-3.575 35.105 1.122 12.882-7.403 24.96-18.426 26.312-12.655 1.55-12.073 7.518-13.324 15.913-3.19 21.423-15.983 30.636-37.411 25.983-8.41-1.826-10.988-2.946-11.786 8.007-1.115 15.306-19.998 23.627-37.528 16.96-9.151-3.48-15.692-2.287-23.706 2.257-18.543 10.512-30.897 7.911-44.43-8.75-3.431-4.224-4.345-6.37-10.947-2.917-12.264 6.414-21.094 6.737-28.552.874-.783 1.324-1.606 2.677-2.452 4.081-15.988 26.53-12.96 49.414 11.582 67.415 14.29 10.481 16.51 19.064 11.563 35.532-8.069 26.854 9.532 49.163 38.537 51.547 13.538 1.112 19.265 4.883 19.455 20.295.366 29.775 23.419 54.858 51.765 52.336 21.894-1.947 33.636 6.854 46.408 20.89 21.656 23.8 40.242 25.76 66.144 4.215 9.63-8.011 11.891-4.808 19.027.924 28.139 22.6 49.368 22.504 76.13-1.336 11.567-10.304 21.896-14.58 38.17-12.096 31.176 4.759 59.273-15.601 55.692-41.155-2.564-18.288 2.072-17.36 16.541-17.332 36.87.069 54.642-19.603 52.307-55.946-.915-14.242-3.983-23.847 16.272-30.873 17.642-6.12 27.382-28.992 20.98-49.77-6.682-21.697-24.887-42.97-6.54-58.972z" fill="#946fae" stroke="#fff" stroke-miterlimit="10" stroke-width="9"/></svg>