<svg id="Livello_1" data-name="Livello 1" xmlns="http://www.w3.org/2000/svg" viewBox="0 0 60.00152 44">
  <defs>
    <style>
      .cls-1 {
        fill: #fff;
      }
    </style>
  </defs>
  <title>logout</title>
  <g>
    <path class="cls-1" d="M59.99842,21.27559a2.34089,2.34089,0,0,1-.5625,1.375l-16,17a2.00093,2.00093,0,0,1-2.82809.07813,2.06269,2.06269,0,0,1-.07813-2.8281l12.844-13.625H9.9987a2,2,0,1,1,0-4h43.375l-12.844-13.625a2.09582,2.09582,0,0,1,.07813-2.82809,2.00323,2.00323,0,0,1,2.82809.07812l16,17a1.782,1.782,0,0,1,.5625,1.375Z" transform="translate(0.00155 0.72441)"/>
    <path class="cls-1" d="M3.99845,41.27559a2,2,0,0,1-4,0v-40a2,2,0,0,1,4,0Z" transform="translate(0.00155 0.72441)"/>
  </g>
</svg>
