<svg id="Livello_1" data-name="Livello 1" xmlns="http://www.w3.org/2000/svg" viewBox="0 0 698.869 732.456"><defs><style>.cls-1,.cls-2,.cls-3,.cls-4,.cls-6{fill:#8e70aa}.cls-2,.cls-3,.cls-4,.cls-5,.cls-6{stroke:#8e70aa;stroke-miterlimit:10}.cls-3{stroke-width:2px}.cls-4,.cls-5{stroke-width:2.5px}.cls-5{fill:none}.cls-6{stroke-width:.25px}</style></defs><path class="cls-1" d="M82.447 236.882H49.533a12.498 12.498 0 01-12.25-10.043l-4.625-22.875a2.11 2.11 0 01.313-1.594 2.124 2.124 0 013.851.762l4.582 22.918h.004a8.333 8.333 0 008.125 6.664h32.914a8.326 8.326 0 008.168-6.707l4.582-22.918a2.126 2.126 0 014.168.836l-4.582 22.918v-.004a12.506 12.506 0 01-12.336 10.043z" transform="translate(-26.315 -14.664)"/><path class="cls-1" d="M63.908 211.882a18.75 18.75 0 01-14.773-7.293 12.5 12.5 0 11-12.206-21.207 17.797 17.797 0 01-.106-1.707 15.584 15.584 0 0116.938-15.563 19.772 19.772 0 0137.105 7.227 18.751 18.751 0 11-15 34.211 18.582 18.582 0 01-11.958 4.332zm-14.293-14.438l1.605 2.812a14.583 14.583 0 0022.915 3.23l1.187-1.187 1.418.918v-.004a14.36 14.36 0 008 2.418 14.583 14.583 0 003.625-28.687l-1.543-.394v-1.563a15.604 15.604 0 00-29.938-5.812l-.668 1.519-1.644-.312a11.372 11.372 0 00-13.582 11.293 11.627 11.627 0 00.355 2.769l.563 2.207-2.25.375a8.334 8.334 0 108.062 13.043z" transform="translate(-26.315 -14.664)"/><path class="cls-2" d="M538.737 306.467c-.539-4.883-4.27-9.535-5.289-10.727-.605-5.043-4.535-8.496-11.234-9.851a12.686 12.686 0 00-.308-1.993c-.543-2.02-3.418-6.796-3.747-7.335a1.288 1.288 0 00-2.382.78c.191 2.15.37 5.99.043 7.153a5.465 5.465 0 01-.418.906 24.522 24.522 0 00-8.145 1.942c-3.914 1.797-6.183 4.68-6.637 8.398-1.023 1.195-4.75 5.84-5.293 10.727-2.035 1.48-9.37 7.207-10.125 13.473a8.294 8.294 0 002.262 6.793 10.39 10.39 0 002.445 2.067c.707 6.988 2.047 18.527 3.567 22.766a18.74 18.74 0 0010.504 11.082 32.75 32.75 0 0013.004 2.484c.144 0 .281 0 .418-.004 6.898-.07 19.09-1.93 23.203-13.57 1.5-4.246 2.848-15.777 3.558-22.754a10.325 10.325 0 002.45-2.066 8.298 8.298 0 002.261-6.793c-.765-6.274-8.097-11.996-10.137-13.477zm-21.94-18.348a14.494 14.494 0 001.495-2.926 11.571 11.571 0 00.274-2.625 12.565 12.565 0 01.851 1.993c.524 1.957.614 7.832-1.195 10.188a1.817 1.817 0 01-1.535.836 2.5 2.5 0 01-.547-.063c-.926-.195-1.496-.527-1.7-.992-.613-1.398 1.247-4.535 2.356-6.41zm-3.005.043c-1.394 2.453-2.668 5.211-1.707 7.406a4.55 4.55 0 003.524 2.473 5.201 5.201 0 001.078.117 4.406 4.406 0 003.574-1.84c1.473-1.914 1.977-5.058 2.031-7.777 4.246.973 8.664 3.27 8.664 8.614a6.997 6.997 0 01-2.152 5.328c-3.875 3.707-11.637 3.406-11.715 3.402l-.059-.004-.058.004c-.078.004-7.82.316-11.711-3.398a6.984 6.984 0 01-2.16-5.332c.004-6.45 6.547-8.403 10.69-8.993zm24.375 62.535c-3.41 9.653-13.195 11.773-20.8 11.855-6.415.07-17.72-1.386-21.474-11.859-1.394-3.886-2.699-15.102-3.328-21.203 2.086-.105 3.606-1.719 4.95-3.152 1.796-1.914 2.718-2.7 4.007-2.156 2.145.898 2.254 2.48 2.258 4.984.004 2.438.012 6.125 5.313 6.125 3.566 0 4.675-3.7 5.57-6.676.738-2.46 1.34-4.207 2.37-4.207 1.04 0 1.65 1.754 2.4 4.235.894 2.96 2.011 6.648 5.538 6.648 5.301 0 5.31-3.683 5.313-6.125.004-2.504.117-4.086 2.258-4.984 1.289-.543 2.21.238 4.008 2.156 1.343 1.434 2.863 3.043 4.945 3.148-.637 6.098-1.945 17.305-3.328 21.211zm6.528-25.69c-1.149 1.265-2.145 1.913-2.965 1.921h-.016c-1.086 0-2.152-1.14-3.285-2.348-1.695-1.808-3.809-4.062-6.883-2.769-3.824 1.61-3.828 4.93-3.836 7.352-.007 2.66-.007 3.554-2.738 3.554-1.504 0-2.195-1.91-3.074-4.82-.86-2.844-1.836-6.063-4.863-6.063s-3.989 3.211-4.836 6.04c-.875 2.925-1.567 4.84-3.102 4.84-2.73 0-2.73-.895-2.738-3.555-.004-2.426-.012-5.746-3.836-7.352-3.074-1.293-5.188.957-6.883 2.77-1.133 1.207-2.203 2.347-3.29 2.347h-.01c-.821-.008-1.821-.652-2.966-1.922a5.762 5.762 0 01-1.617-4.757c.512-4.262 5.102-8.532 7.719-10.648a7.817 7.817 0 00.492 1.488c2.188 4.945 9.274 7.449 21.066 7.449v-2.574c-10.523 0-16.996-2.043-18.71-5.914a6.098 6.098 0 01-.49-2.715c.005-.074.005-.149.013-.219.164-2.664 1.675-5.445 2.98-7.383a9.247 9.247 0 002.66 4.61c3.985 3.804 10.785 4.12 12.941 4.12.293 0 .504-.007.606-.007.847.031 9.02.211 13.547-4.113a9.243 9.243 0 002.664-4.621c1.922 2.882 3.914 7.125 2.5 10.324-1.715 3.87-8.184 5.918-18.711 5.918v2.574c11.793 0 18.879-2.504 21.066-7.45a8.447 8.447 0 00.492-1.492c2.617 2.114 7.207 6.375 7.719 10.645a5.79 5.79 0 01-1.617 4.77z" transform="translate(-26.315 -14.664)"/><path class="cls-1" d="M629.73 185.24c0-5.061-2.871-9.727-7.903-12.868-4.814-9.001-16.007-14.791-28.684-14.791a44.1 44.1 0 00-2.41.07 8.821 8.821 0 00-9.262-3.774c-1.394-4.278-5.267-10.203-13.118-10.765a1.756 1.756 0 10-.252 3.503 11.483 11.483 0 012.483.462 11.258 11.258 0 017.04 6.609 15.16 15.16 0 01.597 1.63 8.859 8.859 0 00-3.734 7.04 25.95 25.95 0 00-10.037 10.011c-5.028 3.141-7.903 7.807-7.903 12.87 0 4.866 2.714 9.266 7.053 12.293l8.151 35.528a1.757 1.757 0 001.713 1.363l39.575.005a1.753 1.753 0 001.712-1.373l7.929-35.524c4.335-3.028 7.049-7.423 7.049-12.29zm-10.748 12.758l-7.35 32.923-36.765-.004-7.55-32.924zm1.947-3.516h-55.572c-3.263-2.361-5.29-5.633-5.29-9.24 0-3.935 2.41-7.625 6.618-10.112a1.748 1.748 0 00.671-.719 21.796 21.796 0 017.873-8.33 8.847 8.847 0 0016.855-4.953c.353-.01.706-.03 1.06-.03 11.396 0 21.76 5.35 25.786 13.313a1.75 1.75 0 00.67.72c4.205 2.491 6.618 6.177 6.618 10.111 0 3.607-2.025 6.883-5.289 9.24zM578 162.539a5.35 5.35 0 115.35 5.35 5.357 5.357 0 01-5.35-5.35z" transform="translate(-26.315 -14.664)"/><path class="cls-1" d="M573.534 178.188a1.755 1.755 0 00-2.61 2.348l4.012 4.457a1.755 1.755 0 002.61-2.348zM603.685 168.39a1.755 1.755 0 00-2.483.026l-4.644 4.736a1.756 1.756 0 002.51 2.457l4.644-4.736a1.755 1.755 0 00-.027-2.483zM611.584 181.224l-6.03 1.071a1.756 1.756 0 00.305 3.486 1.853 1.853 0 00.31-.026l6.03-1.072a1.757 1.757 0 00-.615-3.46zM580.76 204.279a1.757 1.757 0 10-3.454.64l3.642 19.719a1.757 1.757 0 001.725 1.437 1.646 1.646 0 00.323-.03 1.754 1.754 0 001.407-2.048zM595.643 204.597a1.756 1.756 0 10-3.511 0v19.718a1.756 1.756 0 103.511 0zM609.061 202.873a1.76 1.76 0 00-2.047 1.407l-3.643 19.718a1.76 1.76 0 001.408 2.048 1.616 1.616 0 00.322.03 1.76 1.76 0 001.725-1.438l3.642-19.718a1.752 1.752 0 00-1.407-2.048z" transform="translate(-26.315 -14.664)"/><path class="cls-3" d="M681.7 292.479a.807.807 0 00.656.336.848.848 0 00.66-.336c.402-.567 10.03-13.781 11.137-15.73a8.616 8.616 0 00.98-4.617 7.282 7.282 0 00-6.637-6.372 5.88 5.88 0 00-6.14 3.625 5.88 5.88 0 00-6.14-3.625 7.296 7.296 0 00-6.65 6.36 8.697 8.697 0 00.993 4.617c1.098 1.961 10.734 15.176 11.141 15.742zm-10.517-20.152a5.652 5.652 0 015.184-4.914 4.018 4.018 0 01.531 0c3.992 0 4.617 4.73 4.617 4.941l-.004-.004a.809.809 0 001.606 0c0-.219.68-5.355 5.184-4.918a5.705 5.705 0 015.183 4.906 7.07 7.07 0 01-.773 3.637c-.891 1.582-8.137 11.543-10.387 14.668-2.239-3.082-9.489-13.09-10.387-14.668h-.004a7.063 7.063 0 01-.75-3.648zM716.59 327.51h-2.574v-22.242a7.607 7.607 0 00-7.594-7.594h-48.836a7.607 7.607 0 00-7.594 7.594v22.242h-2.574a7.605 7.605 0 00-7.594 7.594v29.848a.808.808 0 00.81.808h82.741a.808.808 0 00.809-.808v-29.848a7.605 7.605 0 00-7.594-7.594zm-64.969-22.242a5.987 5.987 0 015.965-5.977h48.836a5.987 5.987 0 015.965 5.977v22.242H651.62zm70.95 58.863h-81.13v-29.027a5.987 5.987 0 015.977-5.965h69.172a5.974 5.974 0 015.976 5.965z" transform="translate(-26.315 -14.664)"/><path class="cls-1" d="M156.931 363.99a38.488 38.488 0 01-27.65-11.572 38.096 38.096 0 01-11.024-27.553 2.412 2.412 0 01.547-1.493 2.568 2.568 0 011.309-.85 11.414 11.414 0 007.34-5.847 2.414 2.414 0 013.004-1.154 11.354 11.354 0 0015.405-10.616 5.628 5.628 0 00-.07-.72l-.066-.507a2.416 2.416 0 012.321-2.68 11.382 11.382 0 0010.685-8.716 5.819 5.819 0 017.035-4.21 38.445 38.445 0 01-8.836 75.916zm-33.827-37.345a33.297 33.297 0 009.622 22.386 33.734 33.734 0 1031.945-56.24 1.027 1.027 0 00-1.236.61 16.22 16.22 0 01-12.753 12.158 16.242 16.242 0 01-16.209 15.569 15.612 15.612 0 01-3.78-.475 16.232 16.232 0 01-7.588 5.992zM147.261 291.464a2.423 2.423 0 111.717-4.134 2.497 2.497 0 01.7 1.716 2.394 2.394 0 01-2.417 2.418z" transform="translate(-26.315 -14.664)"/><path class="cls-1" d="M181.107 332.561a2.423 2.423 0 111.716-4.134 2.442 2.442 0 01.701 1.717 2.394 2.394 0 01-2.418 2.417zM171.436 325.309zM154.514 322.891zM154.514 334.979a2.423 2.423 0 111.716-4.134 2.452 2.452 0 010 3.433 2.542 2.542 0 01-1.716.701zM147.261 349.484a2.394 2.394 0 111.717-.701 2.497 2.497 0 01-1.717.701zM135.174 304.76c0 4.835-7.253 4.835-7.253 0s7.253-4.835 7.253 0M171.436 309.595c0 4.835-7.252 4.835-7.252 0s7.252-4.835 7.252 0M169.019 343.44c0 4.836-7.253 4.836-7.253 0s7.253-4.834 7.253 0M142.426 331.352c0 4.835-7.252 4.835-7.252 0s7.252-4.835 7.252 0" transform="translate(-26.315 -14.664)"/><path class="cls-4" d="M314.918 363.752a5.963 5.963 0 01-1.988-.344l-2.496-.886a6.794 6.794 0 01-4.235-7.801l8.488-35.562a4.57 4.57 0 00-3.777-5.653l-10.949-1.742a6.262 6.262 0 01-5.187-6.894l.199-1.606a6.148 6.148 0 016.71-5.351l12.907 1.316a2.78 2.78 0 002.77-.926 2.886 2.886 0 00-.184-2.777c-.02-.04-.473-.973-2.22-5.344a12.555 12.555 0 011.063-11.363 12.245 12.245 0 0119.473-.71 12.814 12.814 0 011.836 11.288 59.516 59.516 0 01-1.926 5.93 2.81 2.81 0 00-.191 2.648 2.126 2.126 0 001.863.797 5.2 5.2 0 00.887-.082l14.598-2.539a6.13 6.13 0 017.062 4.867l.313 1.59a6.264 6.264 0 01-4.7 7.238l-10.8 2.5a4.57 4.57 0 00-3.376 5.903l10.938 34.887a6.794 6.794 0 01-3.683 8.074l-2.43 1.058a5.949 5.949 0 01-7.86-3.14l-7.878-18.68c-.465-1.106-1.047-1.762-1.555-1.762-.52 0-1.07.7-1.473 1.867l-6.562 19.18a5.962 5.962 0 01-5.637 4.02zm-13.855-64.895a5.235 5.235 0 00-5.129 4.527l-.2 1.606a5.28 5.28 0 004.376 5.812l10.945 1.742a5.545 5.545 0 014.574 6.844l-8.484 35.562a5.8 5.8 0 003.613 6.656l2.496.887a4.97 4.97 0 006.375-3.078l6.563-19.18c.753-2.2 1.82-2.527 2.394-2.527.941 0 1.813.84 2.453 2.36l7.879 18.68a4.973 4.973 0 006.57 2.628l2.426-1.059a5.803 5.803 0 003.145-6.89l-10.934-34.891a5.538 5.538 0 014.086-7.14l10.8-2.5a5.286 5.286 0 003.961-6.106l-.312-1.59a5.173 5.173 0 00-5.074-4.168 4.924 4.924 0 00-.864.074l-14.598 2.54c-1.718.3-3.093-.13-3.742-1.153a3.72 3.72 0 01.133-3.586c.016-.035.434-.969 1.871-5.793a11.825 11.825 0 00-1.687-10.43 11.272 11.272 0 00-17.875.66 11.564 11.564 0 00-.973 10.47c1.723 4.304 2.184 5.269 2.187 5.276a3.813 3.813 0 01.137 3.723c-.652 1.05-1.953 1.563-3.691 1.379l-12.906-1.316a7.587 7.587 0 00-.516-.02z" transform="translate(-26.315 -14.664)"/><path class="cls-4" d="M322.547 284.381a.803.803 0 01-1.606 0 .803.803 0 011.606 0M330.71 284.096a.803.803 0 01-1.605 0 .803.803 0 011.606 0M327.058 310.331a.8.8 0 01-1.602 0 .8.8 0 111.602 0M327.375 319.307a.803.803 0 01-1.606 0 .803.803 0 011.606 0M327.94 327.999a.803.803 0 01-1.605 0 .803.803 0 011.606 0M325.59 294.378a5.48 5.48 0 01-5.469-5.285.199.199 0 01.188-.203.193.193 0 01.199.187 5.085 5.085 0 1010.164-.351.194.194 0 01.187-.203.204.204 0 01.204.187 5.478 5.478 0 01-5.282 5.664c-.062.004-.129.004-.191.004z" transform="translate(-26.315 -14.664)"/><path class="cls-4" d="M325.59 294.506a5.606 5.606 0 01-5.594-5.414.324.324 0 11.649-.023 4.954 4.954 0 109.902-.344.33.33 0 01.086-.235.314.314 0 01.226-.101.332.332 0 01.336.312 5.605 5.605 0 01-5.41 5.797 1.633 1.633 0 01-.195.008zm-5.281-5.484a.065.065 0 00-.059.066 5.31 5.31 0 001.695 3.723 5.384 5.384 0 003.832 1.433 5.345 5.345 0 005.157-5.527.072.072 0 00-.07-.063.075.075 0 00-.06.067 5.214 5.214 0 11-10.421.363.07.07 0 00-.074-.062zM351.488 309.323a.192.192 0 01-.188-.152l-2.488-10.934a.194.194 0 11.379-.086l2.488 10.934a.194.194 0 01-.144.234c-.02 0-.031.004-.047.004z" transform="translate(-26.315 -14.664)"/><path class="cls-4" d="M351.488 309.452a.326.326 0 01-.317-.254l-2.488-10.934a.327.327 0 01.242-.39.387.387 0 01.07-.008.329.329 0 01.317.254l2.488 10.93a.337.337 0 01-.039.246.32.32 0 01-.203.144.204.204 0 01-.07.012zM349 298.128c-.051.012-.07.047-.063.078l2.488 10.93c.008.035.067.05.075.05.027-.007.039-.019.043-.03a.044.044 0 00.007-.047l-2.488-10.93a.07.07 0 00-.062-.051zM337.91 354.6a.204.204 0 01-.184-.121.196.196 0 01.106-.254l11.273-4.598a.193.193 0 01.254.106.196.196 0 01-.106.254l-11.273 4.601a.204.204 0 01-.07.012z" transform="translate(-26.315 -14.664)"/><path class="cls-4" d="M337.91 354.729a.322.322 0 01-.3-.203.345.345 0 010-.25.336.336 0 01.175-.176l11.273-4.598a.334.334 0 01.426.18.326.326 0 01-.004.25.336.336 0 01-.176.176l-11.273 4.601a.394.394 0 01-.121.02zm11.273-4.988l-11.301 4.605a.061.061 0 00-.035.035.058.058 0 000 .051.066.066 0 00.086.035l11.273-4.601a.075.075 0 00.035-.035.058.058 0 000-.051.062.062 0 00-.059-.04zM319.902 355.819a.182.182 0 01-.067-.012l-11.238-4.043a.195.195 0 01.133-.367l11.242 4.043a.195.195 0 01-.07.379z" transform="translate(-26.315 -14.664)"/><path class="cls-4" d="M319.902 355.952a.34.34 0 01-.11-.02l-11.237-4.043a.324.324 0 01-.184-.168.336.336 0 01-.012-.246.325.325 0 01.414-.195l11.238 4.043a.324.324 0 01.184.168.336.336 0 01.012.246.322.322 0 01-.305.215zm-11.23-4.434c-.04 0-.063.016-.067.04a.054.054 0 00.004.05.075.075 0 00.036.035l11.258 4.047a.065.065 0 00.062-.043.053.053 0 00-.004-.05.075.075 0 00-.035-.036l-11.238-4.043h-.016zM301.586 310.553a.12.12 0 01-.04-.004.193.193 0 01-.151-.23l2.082-10.391a.195.195 0 11.382.078l-2.082 10.39a.196.196 0 01-.191.157z" transform="translate(-26.315 -14.664)"/><path class="cls-4" d="M301.586 310.682a.344.344 0 01-.067-.008.33.33 0 01-.203-.137.337.337 0 01-.046-.246l2.082-10.387a.327.327 0 01.64.13l-2.082 10.39a.338.338 0 01-.324.258zm2.09-10.777a.066.066 0 00-.07.05l-2.083 10.392a.066.066 0 00.012.05.077.077 0 00.04.028l.015.004a.066.066 0 00.062-.055l2.082-10.387a.06.06 0 00-.05-.074c-.004-.008-.008-.008-.008-.008z" transform="translate(-26.315 -14.664)"/><path class="cls-2" d="M538.737 56.412c-.539-4.883-4.27-9.535-5.289-10.727-.605-5.043-4.535-8.496-11.234-9.851a12.686 12.686 0 00-.308-1.993c-.543-2.02-3.418-6.797-3.747-7.336a1.288 1.288 0 00-2.382.782c.191 2.148.37 5.988.043 7.152a5.465 5.465 0 01-.418.906 24.522 24.522 0 00-8.145 1.942c-3.914 1.797-6.183 4.68-6.637 8.398-1.023 1.195-4.75 5.84-5.293 10.727-2.035 1.48-9.37 7.207-10.125 13.473a8.294 8.294 0 002.262 6.793 10.39 10.39 0 002.445 2.066c.707 6.989 2.047 18.527 3.567 22.766a18.739 18.739 0 0010.504 11.082 32.75 32.75 0 0013.004 2.485c.144 0 .281 0 .418-.004 6.898-.07 19.09-1.93 23.203-13.57 1.5-4.246 2.848-15.777 3.558-22.754a10.325 10.325 0 002.45-2.067 8.298 8.298 0 002.261-6.793c-.765-6.273-8.097-11.996-10.137-13.477zm-21.94-18.348a14.494 14.494 0 001.495-2.926 11.571 11.571 0 00.274-2.625 12.565 12.565 0 01.851 1.993c.524 1.957.614 7.832-1.195 10.188a1.817 1.817 0 01-1.535.835 2.5 2.5 0 01-.547-.062c-.926-.195-1.496-.527-1.7-.992-.613-1.399 1.247-4.535 2.356-6.41zm-3.005.043c-1.394 2.453-2.668 5.211-1.707 7.406a4.55 4.55 0 003.524 2.473 5.201 5.201 0 001.078.117 4.406 4.406 0 003.574-1.84c1.473-1.914 1.977-5.058 2.031-7.777 4.246.973 8.664 3.27 8.664 8.613a6.997 6.997 0 01-2.152 5.329c-3.875 3.707-11.637 3.406-11.715 3.402l-.059-.004-.058.004c-.078.004-7.82.316-11.711-3.399a6.984 6.984 0 01-2.16-5.332c.004-6.449 6.547-8.402 10.69-8.992zm24.375 62.535c-3.41 9.652-13.195 11.773-20.8 11.855-6.415.07-17.72-1.387-21.474-11.859-1.394-3.887-2.699-15.102-3.328-21.203 2.086-.105 3.606-1.719 4.95-3.152 1.796-1.914 2.718-2.7 4.007-2.156 2.145.898 2.254 2.48 2.258 4.984.004 2.438.012 6.125 5.313 6.125 3.566 0 4.675-3.7 5.57-6.676.738-2.46 1.34-4.207 2.37-4.207 1.04 0 1.65 1.754 2.4 4.235.894 2.96 2.011 6.648 5.538 6.648 5.301 0 5.31-3.684 5.313-6.125.004-2.504.117-4.086 2.258-4.984 1.289-.543 2.21.238 4.008 2.156 1.343 1.433 2.863 3.043 4.945 3.148-.637 6.098-1.945 17.305-3.328 21.211zm6.528-25.69c-1.149 1.265-2.145 1.913-2.965 1.921h-.016c-1.086 0-2.152-1.14-3.285-2.348-1.695-1.808-3.809-4.062-6.883-2.77-3.824 1.61-3.828 4.93-3.836 7.352-.007 2.66-.007 3.555-2.738 3.555-1.504 0-2.195-1.91-3.074-4.82-.86-2.844-1.836-6.063-4.863-6.063s-3.989 3.211-4.836 6.04c-.875 2.925-1.567 4.84-3.102 4.84-2.73 0-2.73-.895-2.738-3.555-.004-2.426-.012-5.747-3.836-7.352-3.074-1.293-5.188.957-6.883 2.77-1.133 1.206-2.203 2.347-3.29 2.347h-.01c-.821-.008-1.821-.652-2.966-1.922a5.762 5.762 0 01-1.617-4.758c.512-4.261 5.102-8.53 7.719-10.648a7.817 7.817 0 00.492 1.489c2.188 4.945 9.274 7.449 21.066 7.449v-2.574c-10.523 0-16.996-2.043-18.71-5.914a6.098 6.098 0 01-.49-2.715c.005-.074.005-.149.013-.219.164-2.664 1.675-5.445 2.98-7.383a9.247 9.247 0 002.66 4.61c3.985 3.804 10.785 4.12 12.941 4.12.293 0 .504-.007.606-.007.847.031 9.02.21 13.547-4.113a9.243 9.243 0 002.664-4.621c1.922 2.882 3.914 7.125 2.5 10.324-1.715 3.87-8.184 5.918-18.711 5.918v2.574c11.793 0 18.879-2.504 21.066-7.45a8.447 8.447 0 00.492-1.492c2.617 2.114 7.207 6.375 7.719 10.645a5.79 5.79 0 01-1.617 4.77z" transform="translate(-26.315 -14.664)"/><g><path class="cls-3" d="M681.7 42.424a.807.807 0 00.656.336.848.848 0 00.66-.336c.402-.567 10.03-13.781 11.137-15.73a8.616 8.616 0 00.98-4.618 7.282 7.282 0 00-6.637-6.37 5.88 5.88 0 00-6.14 3.624 5.88 5.88 0 00-6.14-3.625 7.296 7.296 0 00-6.65 6.36 8.697 8.697 0 00.993 4.617c1.098 1.96 10.734 15.176 11.141 15.742zm-10.517-20.152a5.652 5.652 0 015.184-4.914 4.018 4.018 0 01.531 0c3.992 0 4.617 4.73 4.617 4.941l-.004-.004a.809.809 0 001.606 0c0-.219.68-5.355 5.184-4.918a5.705 5.705 0 015.183 4.906 7.07 7.07 0 01-.773 3.637c-.891 1.582-8.137 11.543-10.387 14.668-2.239-3.082-9.489-13.09-10.387-14.668h-.004a7.063 7.063 0 01-.75-3.648zM716.59 77.455h-2.574V55.213a7.607 7.607 0 00-7.594-7.594h-48.836a7.607 7.607 0 00-7.594 7.594v22.242h-2.574a7.605 7.605 0 00-7.594 7.593v29.848a.808.808 0 00.81.81h82.741a.808.808 0 00.809-.81V85.048a7.605 7.605 0 00-7.594-7.593zm-64.969-22.242a5.987 5.987 0 015.965-5.977h48.836a5.987 5.987 0 015.965 5.977v22.242H651.62zm70.95 58.863h-81.13V85.049a5.987 5.987 0 015.977-5.965h69.172a5.974 5.974 0 015.976 5.965z" transform="translate(-26.315 -14.664)"/></g><g><path class="cls-1" d="M153.431 113.934a38.488 38.488 0 01-27.65-11.57 38.096 38.096 0 01-11.024-27.554 2.412 2.412 0 01.547-1.493 2.568 2.568 0 011.309-.85 11.414 11.414 0 007.34-5.847 2.414 2.414 0 013.004-1.154 11.354 11.354 0 0015.405-10.616 5.628 5.628 0 00-.07-.72l-.066-.507a2.416 2.416 0 012.321-2.68 11.382 11.382 0 0010.685-8.716 5.819 5.819 0 017.035-4.21 38.445 38.445 0 01-8.836 75.916zM119.604 76.59a33.297 33.297 0 009.622 22.386 33.734 33.734 0 1031.945-56.24 1.027 1.027 0 00-1.236.61 16.22 16.22 0 01-12.753 12.158 16.242 16.242 0 01-16.209 15.568 15.612 15.612 0 01-3.78-.474 16.232 16.232 0 01-7.588 5.992zM143.761 41.408a2.423 2.423 0 111.717-4.134 2.497 2.497 0 01.7 1.717 2.394 2.394 0 01-2.417 2.417z" transform="translate(-26.315 -14.664)"/><path class="cls-1" d="M177.607 82.506a2.423 2.423 0 111.716-4.134 2.442 2.442 0 01.701 1.717 2.394 2.394 0 01-2.418 2.417zM167.936 75.254zM151.014 72.836zM151.014 84.924a2.423 2.423 0 111.716-4.134 2.452 2.452 0 010 3.433 2.542 2.542 0 01-1.716.7zM143.761 99.429a2.394 2.394 0 111.717-.701 2.497 2.497 0 01-1.717.7zM131.674 54.705c0 4.835-7.253 4.835-7.253 0s7.253-4.835 7.253 0M167.936 59.54c0 4.835-7.252 4.835-7.252 0s7.252-4.835 7.252 0M165.519 93.385c0 4.835-7.253 4.835-7.253 0s7.253-4.835 7.253 0M138.926 81.297c0 4.835-7.252 4.835-7.252 0s7.252-4.835 7.252 0" transform="translate(-26.315 -14.664)"/></g><g><path class="cls-4" d="M314.918 113.697a5.963 5.963 0 01-1.988-.344l-2.496-.887a6.794 6.794 0 01-4.235-7.8l8.488-35.562a4.57 4.57 0 00-3.777-5.653l-10.949-1.742a6.262 6.262 0 01-5.187-6.894l.199-1.606a6.148 6.148 0 016.71-5.352l12.907 1.317a2.78 2.78 0 002.77-.926 2.886 2.886 0 00-.184-2.777c-.02-.04-.473-.973-2.22-5.344a12.555 12.555 0 011.063-11.363 12.245 12.245 0 0119.473-.71 12.814 12.814 0 011.836 11.288 59.516 59.516 0 01-1.926 5.93 2.81 2.81 0 00-.191 2.648 2.126 2.126 0 001.863.797 5.2 5.2 0 00.887-.082l14.598-2.539a6.13 6.13 0 017.062 4.867l.313 1.59a6.264 6.264 0 01-4.7 7.238l-10.8 2.5a4.57 4.57 0 00-3.376 5.903l10.938 34.887a6.794 6.794 0 01-3.683 8.074l-2.43 1.058a5.949 5.949 0 01-7.86-3.14l-7.878-18.68c-.465-1.106-1.047-1.762-1.555-1.762-.52 0-1.07.7-1.473 1.867l-6.562 19.18a5.962 5.962 0 01-5.637 4.02zm-13.855-64.895a5.235 5.235 0 00-5.129 4.527l-.2 1.606a5.28 5.28 0 004.376 5.812l10.945 1.742a5.545 5.545 0 014.574 6.844l-8.484 35.562a5.8 5.8 0 003.613 6.656l2.496.887a4.97 4.97 0 006.375-3.078l6.563-19.18c.753-2.2 1.82-2.527 2.394-2.527.941 0 1.813.84 2.453 2.359l7.879 18.68a4.973 4.973 0 006.57 2.629l2.426-1.059a5.803 5.803 0 003.145-6.89L340.125 68.48a5.538 5.538 0 014.086-7.141l10.8-2.5a5.286 5.286 0 003.961-6.105l-.312-1.59a5.173 5.173 0 00-5.074-4.168 4.923 4.923 0 00-.864.074l-14.598 2.539c-1.718.3-3.093-.129-3.742-1.152a3.72 3.72 0 01.133-3.586c.016-.035.434-.969 1.871-5.793a11.825 11.825 0 00-1.687-10.43 11.272 11.272 0 00-17.875.66 11.564 11.564 0 00-.973 10.469c1.723 4.305 2.184 5.27 2.187 5.277a3.813 3.813 0 01.137 3.723c-.652 1.05-1.953 1.563-3.691 1.379l-12.906-1.316a7.58 7.58 0 00-.516-.02z" transform="translate(-26.315 -14.664)"/><path class="cls-4" d="M322.547 34.326a.803.803 0 01-1.606 0 .803.803 0 011.606 0M330.71 34.04a.803.803 0 01-1.605 0 .803.803 0 011.606 0M327.058 60.276a.8.8 0 01-1.602 0 .8.8 0 111.602 0M327.375 69.252a.803.803 0 01-1.606 0 .803.803 0 011.606 0M327.94 77.944a.803.803 0 01-1.605 0 .803.803 0 011.606 0M325.59 44.323a5.48 5.48 0 01-5.469-5.285.199.199 0 01.188-.203.193.193 0 01.199.187 5.085 5.085 0 1010.164-.351.194.194 0 01.187-.204.204.204 0 01.204.188 5.478 5.478 0 01-5.282 5.664c-.062.004-.129.004-.191.004z" transform="translate(-26.315 -14.664)"/><path class="cls-4" d="M325.59 44.45a5.606 5.606 0 01-5.594-5.413.324.324 0 01.649-.024 4.954 4.954 0 109.902-.343.33.33 0 01.086-.235.314.314 0 01.226-.101.332.332 0 01.336.312 5.605 5.605 0 01-5.41 5.797 1.633 1.633 0 01-.195.008zm-5.281-5.483a.065.065 0 00-.059.066 5.31 5.31 0 001.695 3.723 5.384 5.384 0 003.832 1.433 5.345 5.345 0 005.157-5.527.072.072 0 00-.07-.063.075.075 0 00-.06.067 5.214 5.214 0 11-10.421.363.07.07 0 00-.074-.062zM351.488 59.268a.192.192 0 01-.188-.152l-2.488-10.934a.194.194 0 11.379-.086l2.488 10.934a.194.194 0 01-.144.234c-.02 0-.031.004-.047.004z" transform="translate(-26.315 -14.664)"/><path class="cls-4" d="M351.488 59.397a.326.326 0 01-.317-.254l-2.488-10.934a.327.327 0 01.242-.39.387.387 0 01.07-.008.329.329 0 01.317.253l2.488 10.93a.337.337 0 01-.039.247.32.32 0 01-.203.144.204.204 0 01-.07.012zM349 48.073c-.051.012-.07.047-.063.078l2.488 10.93c.008.035.067.05.075.05.027-.007.039-.019.043-.03a.044.044 0 00.007-.047l-2.488-10.93a.07.07 0 00-.062-.051zM337.91 104.545a.204.204 0 01-.184-.121.196.196 0 01.106-.254l11.273-4.598a.193.193 0 01.254.106.196.196 0 01-.106.254l-11.273 4.601a.204.204 0 01-.07.012z" transform="translate(-26.315 -14.664)"/><path class="cls-4" d="M337.91 104.674a.322.322 0 01-.3-.203.345.345 0 010-.25.336.336 0 01.175-.176l11.273-4.598a.334.334 0 01.426.18.326.326 0 01-.004.25.336.336 0 01-.176.176l-11.273 4.601a.393.393 0 01-.121.02zm11.273-4.988l-11.301 4.605a.061.061 0 00-.035.035.058.058 0 000 .051.066.066 0 00.086.035l11.273-4.601a.075.075 0 00.035-.036.058.058 0 000-.05.062.062 0 00-.059-.04zM319.902 105.764a.183.183 0 01-.067-.012l-11.238-4.043a.195.195 0 01.133-.367l11.242 4.043a.195.195 0 01-.07.379z" transform="translate(-26.315 -14.664)"/><path class="cls-4" d="M319.902 105.897a.339.339 0 01-.11-.02l-11.237-4.043a.324.324 0 01-.184-.168.336.336 0 01-.012-.246.325.325 0 01.414-.195l11.238 4.043a.324.324 0 01.184.168.336.336 0 01.012.246.322.322 0 01-.305.215zm-11.23-4.434c-.04 0-.063.016-.067.04a.054.054 0 00.004.05.075.075 0 00.036.035l11.258 4.047a.065.065 0 00.062-.043.053.053 0 00-.004-.05.075.075 0 00-.035-.036l-11.238-4.043h-.016zM301.586 60.498a.12.12 0 01-.04-.004.193.193 0 01-.151-.23l2.082-10.391a.195.195 0 01.382.078l-2.082 10.39a.196.196 0 01-.191.157z" transform="translate(-26.315 -14.664)"/><path class="cls-4" d="M301.586 60.627a.344.344 0 01-.067-.008.33.33 0 01-.203-.137.337.337 0 01-.046-.246l2.082-10.387a.327.327 0 01.64.13l-2.082 10.39a.338.338 0 01-.324.258zm2.09-10.777a.066.066 0 00-.07.05l-2.083 10.392a.066.066 0 00.012.05.077.077 0 00.04.028l.015.004a.066.066 0 00.062-.055l2.082-10.387a.06.06 0 00-.05-.074c-.004-.008-.008-.008-.008-.008z" transform="translate(-26.315 -14.664)"/></g><path class="cls-1" d="M295.442 178.79c-9.012-3.005-11.156-7.485-13.43-12.23-1.91-3.99-3.88-8.114-9.625-10.98a2.06 2.06 0 00-1.637-.099 2.09 2.09 0 00-1.2 1.122l-7.792 17.758c-8.172-1.555-17.652 1.351-24.746 8.445s-9.996 16.574-8.442 24.746l-17.762 7.793a2.083 2.083 0 00.18 3.883c9.012 3.004 11.156 7.48 13.43 12.23h-.004a25.792 25.792 0 004.856 7.601 17.977 17.977 0 004.773 3.38 2.079 2.079 0 002.836-1.024l7.793-17.758c8.172 1.554 17.652-1.348 24.746-8.446 7.094-7.093 9.996-16.574 8.445-24.746l17.758-7.793a2.083 2.083 0 00-.18-3.882zm-61.434 58.804c-3.055-2.125-4.356-4.852-5.832-7.934-2.028-4.234-4.286-8.949-11.215-12.465l12.793-5.617a19.272 19.272 0 0010.89 10.891zm32.465-25.328c-8.934 8.934-22.152 10.258-29.461 2.945-7.313-7.308-5.989-20.527 2.945-29.46 8.934-8.934 22.152-10.259 29.461-2.946 7.312 7.309 5.988 20.527-2.945 29.461zm10.199-25.828a19.266 19.266 0 00-10.887-10.89l6.636-15.126c3.059 2.129 4.356 4.852 5.832 7.934 2.032 4.242 4.278 8.953 11.215 12.469z" transform="translate(-26.315 -14.664)"/><path class="cls-6" d="M462.513 182.887a27.682 27.682 0 00-47.274-19.592 10.91 10.91 0 0015.43 15.43 5.889 5.889 0 018.327 8.327l-40.797 40.797a10.91 10.91 0 1015.43 15.429l40.799-40.8a27.505 27.505 0 008.084-19.591zm-21.785 28.867l-18.818-3.201 11.23-11.231 18.82 3.2zm-21.528-.492l18.818 3.201-11.236 11.237-18.818-3.2zM454.4 197.77l-18.551-3.154 5.355-5.356a8.899 8.899 0 002.514-4.983l15.667-1.978.008.589a24.418 24.418 0 01-4.994 14.882zm-36.95-32.264a24.476 24.476 0 0114.59-7.032l-11.507 19.926a7.774 7.774 0 01-3.083-12.893zm17.383 8.389a8.943 8.943 0 00-6.372 2.621 7.734 7.734 0 01-4.502 2.21l11.772-20.39a24.502 24.502 0 0113.1 4.345l-11.55 11.551a9.217 9.217 0 00-2.448-.337zm5.414 1.79l11.051-11.051c.312.279.62.574.917.872a24.331 24.331 0 016.9 13.679l-15.459 1.952a8.882 8.882 0 00-2.45-4.621 9.105 9.105 0 00-.958-.831zm-39.838 65.382a7.794 7.794 0 010-11.01l4.847-4.848 18.818 3.201-12.658 12.659a7.793 7.793 0 01-11.007-.003z" transform="translate(-26.315 -14.664)"/><g><path class="cls-1" d="M80.447 482.13H47.533a12.498 12.498 0 01-12.25-10.043l-4.625-22.875a2.11 2.11 0 01.313-1.594 2.124 2.124 0 013.851.762l4.582 22.918h.004a8.333 8.333 0 008.125 6.664h32.914a8.326 8.326 0 008.168-6.707l4.582-22.918a2.126 2.126 0 014.168.836l-4.582 22.918v-.004a12.506 12.506 0 01-12.336 10.043z" transform="translate(-26.315 -14.664)"/><path class="cls-1" d="M61.908 457.13a18.75 18.75 0 01-14.773-7.293 12.5 12.5 0 11-12.206-21.207 17.797 17.797 0 01-.106-1.707 15.584 15.584 0 0116.938-15.563 19.772 19.772 0 0137.105 7.226 18.751 18.751 0 11-15 34.212 18.582 18.582 0 01-11.958 4.332zm-14.293-14.438l1.605 2.812a14.583 14.583 0 0022.915 3.23l1.187-1.187 1.418.918v-.004a14.36 14.36 0 008 2.418 14.583 14.583 0 003.625-28.687l-1.543-.394v-1.563a15.604 15.604 0 00-29.938-5.813l-.668 1.52-1.644-.313a11.372 11.372 0 00-13.582 11.293 11.627 11.627 0 00.355 2.77l.563 2.207-2.25.375a8.334 8.334 0 108.062 13.043z" transform="translate(-26.315 -14.664)"/></g><path class="cls-2" d="M536.737 551.715c-.539-4.883-4.27-9.535-5.289-10.727-.605-5.043-4.535-8.496-11.234-9.851a12.686 12.686 0 00-.308-1.993c-.543-2.02-3.418-6.797-3.747-7.336a1.288 1.288 0 00-2.382.782c.191 2.148.37 5.988.043 7.152a5.465 5.465 0 01-.418.906 24.522 24.522 0 00-8.145 1.942c-3.914 1.797-6.183 4.68-6.637 8.398-1.023 1.195-4.75 5.84-5.293 10.727-2.035 1.48-9.37 7.207-10.125 13.473a8.294 8.294 0 002.262 6.793 10.39 10.39 0 002.445 2.066c.707 6.989 2.047 18.527 3.567 22.766a18.74 18.74 0 0010.504 11.082 32.75 32.75 0 0013.004 2.485c.144 0 .281 0 .418-.004 6.898-.07 19.09-1.93 23.203-13.57 1.5-4.246 2.848-15.777 3.558-22.754a10.325 10.325 0 002.45-2.066 8.298 8.298 0 002.261-6.793c-.765-6.274-8.097-11.996-10.137-13.477zm-21.94-18.348a14.494 14.494 0 001.495-2.926 11.571 11.571 0 00.274-2.625 12.565 12.565 0 01.851 1.993c.524 1.957.614 7.832-1.195 10.188a1.817 1.817 0 01-1.535.835 2.5 2.5 0 01-.547-.062c-.926-.195-1.496-.527-1.7-.992-.613-1.399 1.247-4.535 2.356-6.41zm-3.005.043c-1.394 2.453-2.668 5.211-1.707 7.406a4.55 4.55 0 003.524 2.473 5.201 5.201 0 001.078.117 4.406 4.406 0 003.574-1.84c1.473-1.914 1.977-5.058 2.031-7.777 4.246.973 8.664 3.27 8.664 8.613a6.997 6.997 0 01-2.152 5.329c-3.875 3.707-11.637 3.406-11.715 3.402l-.059-.004-.058.004c-.078.004-7.82.316-11.711-3.399a6.984 6.984 0 01-2.16-5.332c.004-6.449 6.547-8.402 10.69-8.992zm24.375 62.535c-3.41 9.652-13.195 11.773-20.8 11.855-6.415.07-17.72-1.387-21.474-11.859-1.394-3.887-2.699-15.102-3.328-21.203 2.086-.105 3.606-1.719 4.95-3.152 1.796-1.914 2.718-2.7 4.007-2.156 2.145.898 2.254 2.48 2.258 4.984.004 2.438.012 6.125 5.313 6.125 3.566 0 4.675-3.7 5.57-6.676.738-2.46 1.34-4.207 2.37-4.207 1.04 0 1.65 1.754 2.4 4.235.894 2.96 2.011 6.648 5.538 6.648 5.301 0 5.31-3.684 5.313-6.125.004-2.504.117-4.086 2.258-4.984 1.289-.543 2.21.238 4.008 2.156 1.343 1.433 2.863 3.043 4.945 3.148-.637 6.098-1.945 17.305-3.328 21.211zm6.528-25.69c-1.149 1.265-2.145 1.913-2.965 1.921h-.016c-1.086 0-2.152-1.14-3.285-2.348-1.695-1.808-3.809-4.062-6.883-2.77-3.824 1.61-3.828 4.93-3.836 7.352-.007 2.66-.007 3.555-2.738 3.555-1.504 0-2.195-1.91-3.074-4.82-.86-2.844-1.836-6.063-4.863-6.063s-3.989 3.211-4.836 6.04c-.875 2.925-1.567 4.84-3.102 4.84-2.73 0-2.73-.895-2.738-3.555-.004-2.426-.012-5.747-3.836-7.352-3.074-1.293-5.188.957-6.883 2.77-1.133 1.206-2.203 2.347-3.29 2.347h-.01c-.821-.008-1.821-.652-2.966-1.922a5.762 5.762 0 01-1.617-4.758c.512-4.261 5.102-8.53 7.719-10.648a7.817 7.817 0 00.492 1.489c2.188 4.945 9.274 7.449 21.066 7.449v-2.574c-10.523 0-16.996-2.043-18.71-5.914a6.098 6.098 0 01-.49-2.715c.005-.074.005-.149.013-.219.164-2.664 1.675-5.445 2.98-7.383a9.247 9.247 0 002.66 4.61c3.985 3.804 10.785 4.12 12.941 4.12.293 0 .504-.007.606-.007.847.031 9.02.21 13.547-4.113a9.243 9.243 0 002.664-4.621c1.922 2.882 3.914 7.125 2.5 10.324-1.715 3.87-8.184 5.918-18.711 5.918v2.574c11.793 0 18.879-2.504 21.066-7.45a8.447 8.447 0 00.492-1.492c2.617 2.114 7.207 6.375 7.719 10.645a5.79 5.79 0 01-1.617 4.77z" transform="translate(-26.315 -14.664)"/><g><path class="cls-1" d="M627.73 430.489c0-5.063-2.871-9.729-7.903-12.87-4.814-9-16.007-14.79-28.684-14.79-.81 0-1.612.026-2.41.07a8.821 8.821 0 00-9.262-3.774c-1.394-4.278-5.267-10.203-13.118-10.765a1.756 1.756 0 00-.252 3.503 11.483 11.483 0 012.483.462 11.258 11.258 0 017.04 6.609 15.16 15.16 0 01.597 1.63 8.859 8.859 0 00-3.734 7.04 25.95 25.95 0 00-10.037 10.01c-5.028 3.142-7.903 7.808-7.903 12.87 0 4.867 2.714 9.267 7.053 12.294l8.151 35.528a1.757 1.757 0 001.713 1.363l39.575.005a1.753 1.753 0 001.712-1.373l7.929-35.524c4.335-3.028 7.049-7.424 7.049-12.29zm-10.748 12.757l-7.35 32.923-36.765-.004-7.55-32.924zm1.947-3.516h-55.572c-3.263-2.362-5.29-5.633-5.29-9.24 0-3.935 2.41-7.625 6.618-10.112a1.748 1.748 0 00.671-.72 21.796 21.796 0 017.873-8.329 8.847 8.847 0 0016.855-4.953c.353-.01.706-.031 1.06-.031 11.396 0 21.76 5.35 25.786 13.314a1.75 1.75 0 00.67.72c4.205 2.491 6.618 6.177 6.618 10.11 0 3.608-2.025 6.884-5.289 9.241zM576 407.787a5.35 5.35 0 115.35 5.35 5.357 5.357 0 01-5.35-5.35z" transform="translate(-26.315 -14.664)"/><path class="cls-1" d="M571.534 423.436a1.755 1.755 0 10-2.61 2.348l4.012 4.457a1.755 1.755 0 002.61-2.348zM601.685 413.638a1.755 1.755 0 00-2.483.026l-4.644 4.736a1.756 1.756 0 002.51 2.457l4.644-4.736a1.755 1.755 0 00-.027-2.483zM609.584 426.472l-6.03 1.071a1.756 1.756 0 00.305 3.486 1.853 1.853 0 00.31-.027l6.03-1.071a1.757 1.757 0 00-.615-3.46zM578.76 449.527a1.757 1.757 0 10-3.454.64l3.642 19.719a1.757 1.757 0 001.725 1.437 1.647 1.647 0 00.323-.03 1.754 1.754 0 001.407-2.048zM593.643 449.845a1.756 1.756 0 10-3.511 0v19.718a1.756 1.756 0 103.511 0zM607.061 448.12a1.76 1.76 0 00-2.047 1.408l-3.643 19.718a1.76 1.76 0 001.408 2.048 1.616 1.616 0 00.322.03 1.76 1.76 0 001.725-1.438l3.642-19.718a1.752 1.752 0 00-1.407-2.048z" transform="translate(-26.315 -14.664)"/></g><g><path class="cls-3" d="M679.7 537.727a.807.807 0 00.656.336.848.848 0 00.66-.336c.402-.567 10.03-13.781 11.137-15.73a8.616 8.616 0 00.98-4.618 7.282 7.282 0 00-6.637-6.37 5.88 5.88 0 00-6.14 3.624 5.88 5.88 0 00-6.14-3.625 7.296 7.296 0 00-6.65 6.36 8.697 8.697 0 00.993 4.617c1.098 1.96 10.734 15.176 11.141 15.742zm-10.517-20.152a5.652 5.652 0 015.184-4.914 4.021 4.021 0 01.531 0c3.992 0 4.617 4.73 4.617 4.941l-.004-.004a.809.809 0 001.606 0c0-.219.68-5.355 5.184-4.918a5.705 5.705 0 015.183 4.906 7.07 7.07 0 01-.773 3.637c-.891 1.582-8.137 11.543-10.387 14.668-2.239-3.082-9.489-13.09-10.387-14.668h-.004a7.063 7.063 0 01-.75-3.648zM714.59 572.758h-2.574v-22.242a7.607 7.607 0 00-7.594-7.594h-48.836a7.607 7.607 0 00-7.594 7.594v22.242h-2.574a7.605 7.605 0 00-7.594 7.593V610.2a.808.808 0 00.81.81h82.741a.808.808 0 00.809-.81v-29.848a7.605 7.605 0 00-7.594-7.593zm-64.969-22.242a5.987 5.987 0 015.965-5.977h48.836a5.987 5.987 0 015.965 5.977v22.242H649.62zm70.95 58.863h-81.13v-29.027a5.987 5.987 0 015.977-5.965h69.172a5.974 5.974 0 015.976 5.965z" transform="translate(-26.315 -14.664)"/></g><g><path class="cls-1" d="M151.431 609.237a38.488 38.488 0 01-27.65-11.57 38.096 38.096 0 01-11.024-27.554 2.412 2.412 0 01.547-1.493 2.568 2.568 0 011.309-.85 11.414 11.414 0 007.34-5.847 2.414 2.414 0 013.004-1.154 11.354 11.354 0 0015.405-10.616 5.628 5.628 0 00-.07-.72l-.066-.507a2.416 2.416 0 012.321-2.68 11.382 11.382 0 0010.685-8.716 5.819 5.819 0 017.035-4.21 38.445 38.445 0 01-8.836 75.916zm-33.827-37.344a33.297 33.297 0 009.622 22.386 33.734 33.734 0 1031.945-56.24 1.027 1.027 0 00-1.236.61 16.22 16.22 0 01-12.753 12.158 16.242 16.242 0 01-16.209 15.568 15.612 15.612 0 01-3.78-.474 16.232 16.232 0 01-7.588 5.992zM141.761 536.711a2.423 2.423 0 111.717-4.134 2.497 2.497 0 01.7 1.717 2.394 2.394 0 01-2.417 2.417z" transform="translate(-26.315 -14.664)"/><path class="cls-1" d="M175.607 577.81a2.423 2.423 0 111.716-4.135 2.442 2.442 0 01.701 1.717 2.394 2.394 0 01-2.418 2.417zM165.936 570.557zM149.014 568.14zM149.014 580.227a2.423 2.423 0 111.716-4.134 2.452 2.452 0 010 3.433 2.542 2.542 0 01-1.716.7zM141.761 594.732a2.394 2.394 0 111.717-.701 2.497 2.497 0 01-1.717.7zM129.674 550.008c0 4.835-7.253 4.835-7.253 0s7.253-4.835 7.253 0M165.936 554.843c0 4.835-7.252 4.835-7.252 0s7.252-4.835 7.252 0M163.519 588.688c0 4.835-7.253 4.835-7.253 0s7.253-4.835 7.253 0M136.926 576.6c0 4.835-7.252 4.835-7.252 0s7.252-4.835 7.252 0" transform="translate(-26.315 -14.664)"/></g><g><path class="cls-4" d="M312.918 609a5.963 5.963 0 01-1.988-.344l-2.496-.887a6.794 6.794 0 01-4.235-7.8l8.488-35.562a4.57 4.57 0 00-3.777-5.653l-10.949-1.742a6.262 6.262 0 01-5.187-6.894l.199-1.606a6.148 6.148 0 016.71-5.352l12.907 1.317a2.78 2.78 0 002.77-.926 2.886 2.886 0 00-.184-2.777c-.02-.04-.473-.973-2.22-5.344a12.555 12.555 0 011.063-11.363 12.245 12.245 0 0119.473-.71 12.814 12.814 0 011.836 11.288 59.519 59.519 0 01-1.926 5.93 2.81 2.81 0 00-.191 2.648 2.126 2.126 0 001.863.797 5.2 5.2 0 00.887-.082l14.598-2.539a6.13 6.13 0 017.062 4.867l.313 1.59a6.264 6.264 0 01-4.7 7.238l-10.8 2.5a4.57 4.57 0 00-3.376 5.903l10.938 34.887a6.794 6.794 0 01-3.683 8.074l-2.43 1.058a5.949 5.949 0 01-7.86-3.14l-7.878-18.68c-.465-1.106-1.047-1.762-1.555-1.762-.52 0-1.07.7-1.473 1.867l-6.562 19.18a5.962 5.962 0 01-5.637 4.02zm-13.855-64.895a5.235 5.235 0 00-5.129 4.527l-.2 1.606a5.28 5.28 0 004.376 5.812l10.945 1.742a5.545 5.545 0 014.574 6.844l-8.484 35.562a5.8 5.8 0 003.613 6.656l2.496.887a4.97 4.97 0 006.375-3.078l6.563-19.18c.753-2.2 1.82-2.527 2.394-2.527.941 0 1.813.84 2.453 2.359l7.879 18.68a4.973 4.973 0 006.57 2.629l2.426-1.059a5.803 5.803 0 003.145-6.89l-10.934-34.891a5.538 5.538 0 014.086-7.141l10.8-2.5a5.286 5.286 0 003.961-6.105l-.312-1.59a5.173 5.173 0 00-5.074-4.168 4.924 4.924 0 00-.864.074l-14.598 2.539c-1.718.3-3.093-.129-3.742-1.152a3.72 3.72 0 01.133-3.586c.016-.035.434-.969 1.871-5.793a11.825 11.825 0 00-1.687-10.43 11.272 11.272 0 00-17.875.66 11.564 11.564 0 00-.973 10.469c1.723 4.305 2.184 5.27 2.187 5.277a3.813 3.813 0 01.137 3.723c-.652 1.05-1.953 1.563-3.691 1.379l-12.906-1.316a7.58 7.58 0 00-.516-.02z" transform="translate(-26.315 -14.664)"/><path class="cls-4" d="M320.547 529.629a.803.803 0 01-1.606 0 .803.803 0 011.606 0M328.71 529.344a.803.803 0 01-1.605 0 .803.803 0 011.606 0M325.058 555.579a.8.8 0 01-1.602 0 .8.8 0 111.602 0M325.375 564.555a.803.803 0 01-1.606 0 .803.803 0 011.606 0M325.94 573.247a.803.803 0 01-1.605 0 .803.803 0 011.606 0M323.59 539.626a5.48 5.48 0 01-5.469-5.285.199.199 0 01.188-.203.193.193 0 01.199.187 5.085 5.085 0 1010.164-.351.194.194 0 01.187-.204.204.204 0 01.204.188 5.478 5.478 0 01-5.282 5.664c-.062.004-.129.004-.191.004z" transform="translate(-26.315 -14.664)"/><path class="cls-4" d="M323.59 539.754a5.606 5.606 0 01-5.594-5.414.324.324 0 11.649-.024 4.954 4.954 0 109.902-.343.33.33 0 01.086-.235.314.314 0 01.226-.101.332.332 0 01.336.312 5.605 5.605 0 01-5.41 5.797 1.633 1.633 0 01-.195.008zm-5.281-5.484a.065.065 0 00-.059.066 5.31 5.31 0 001.695 3.723 5.384 5.384 0 003.832 1.433 5.345 5.345 0 005.157-5.527.072.072 0 00-.07-.063.075.075 0 00-.06.067 5.214 5.214 0 11-10.421.363.07.07 0 00-.074-.062zM349.488 554.57a.192.192 0 01-.188-.151l-2.488-10.934a.194.194 0 11.379-.086l2.488 10.934a.194.194 0 01-.144.234c-.02 0-.031.004-.047.004z" transform="translate(-26.315 -14.664)"/><path class="cls-4" d="M349.488 554.7a.326.326 0 01-.317-.254l-2.488-10.934a.327.327 0 01.242-.39.387.387 0 01.07-.008.329.329 0 01.317.253l2.488 10.93a.337.337 0 01-.039.247.32.32 0 01-.203.144.204.204 0 01-.07.012zM347 543.376c-.051.012-.07.047-.063.078l2.488 10.93c.008.035.067.05.075.05.027-.007.039-.019.043-.03a.044.044 0 00.007-.047l-2.488-10.93a.07.07 0 00-.062-.051zM335.91 599.848a.204.204 0 01-.184-.121.196.196 0 01.106-.254l11.273-4.598a.193.193 0 01.254.106.196.196 0 01-.106.254l-11.273 4.601a.205.205 0 01-.07.012z" transform="translate(-26.315 -14.664)"/><path class="cls-4" d="M335.91 599.977a.322.322 0 01-.3-.203.345.345 0 010-.25.336.336 0 01.175-.176l11.273-4.598a.334.334 0 01.426.18.326.326 0 01-.004.25.336.336 0 01-.176.176l-11.273 4.601a.393.393 0 01-.121.02zm11.273-4.988l-11.301 4.605a.061.061 0 00-.035.035.058.058 0 000 .051.066.066 0 00.086.035l11.273-4.601a.075.075 0 00.035-.036.058.058 0 000-.05.062.062 0 00-.059-.04zM317.902 601.067a.182.182 0 01-.067-.012l-11.238-4.043a.195.195 0 11.133-.367l11.242 4.043a.195.195 0 01-.07.379z" transform="translate(-26.315 -14.664)"/><path class="cls-4" d="M317.902 601.2a.339.339 0 01-.11-.02l-11.237-4.043a.324.324 0 01-.184-.168.336.336 0 01-.012-.246.325.325 0 01.414-.195l11.238 4.043a.324.324 0 01.184.168.336.336 0 01.012.246.322.322 0 01-.305.215zm-11.23-4.434c-.04 0-.063.016-.067.04a.054.054 0 00.004.05.075.075 0 00.036.035l11.258 4.047a.065.065 0 00.062-.043.053.053 0 00-.004-.05.075.075 0 00-.035-.036l-11.238-4.043h-.016zM299.586 555.8a.12.12 0 01-.04-.003.193.193 0 01-.151-.23l2.082-10.391a.195.195 0 11.382.078l-2.082 10.39a.196.196 0 01-.191.157z" transform="translate(-26.315 -14.664)"/><path class="cls-4" d="M299.586 555.93a.344.344 0 01-.067-.008.33.33 0 01-.203-.137.337.337 0 01-.046-.246l2.082-10.387a.327.327 0 01.64.13l-2.082 10.39a.338.338 0 01-.324.258zm2.09-10.777a.066.066 0 00-.07.05l-2.083 10.392a.066.066 0 00.012.05.077.077 0 00.04.028l.015.004a.066.066 0 00.062-.055l2.082-10.387a.06.06 0 00-.05-.074c-.004-.008-.008-.008-.008-.008z" transform="translate(-26.315 -14.664)"/></g><path class="cls-1" d="M293.442 424.037c-9.012-3.004-11.156-7.484-13.43-12.23-1.91-3.988-3.88-8.113-9.625-10.98a2.06 2.06 0 00-1.637-.098 2.09 2.09 0 00-1.2 1.121l-7.792 17.758c-8.172-1.554-17.652 1.352-24.746 8.446s-9.996 16.574-8.442 24.746l-17.762 7.793a2.083 2.083 0 00.18 3.883c9.012 3.003 11.156 7.48 13.43 12.23h-.004a25.792 25.792 0 004.856 7.601 17.977 17.977 0 004.773 3.379 2.079 2.079 0 002.836-1.023l7.793-17.758c8.172 1.554 17.652-1.348 24.746-8.446 7.094-7.094 9.996-16.574 8.445-24.746l17.758-7.793a2.083 2.083 0 00-.18-3.883zm-61.434 58.805c-3.055-2.125-4.356-4.852-5.832-7.934-2.028-4.234-4.286-8.949-11.215-12.465l12.793-5.617a19.272 19.272 0 0010.89 10.891zm32.465-25.328c-8.934 8.934-22.152 10.258-29.461 2.945-7.313-7.308-5.989-20.527 2.945-29.46 8.934-8.934 22.152-10.259 29.461-2.946 7.312 7.309 5.988 20.527-2.945 29.461zm10.199-25.828a19.266 19.266 0 00-10.887-10.891l6.636-15.125c3.059 2.129 4.356 4.852 5.832 7.934 2.032 4.242 4.278 8.953 11.215 12.469z" transform="translate(-26.315 -14.664)"/><path class="cls-6" d="M460.513 428.135a27.682 27.682 0 00-47.274-19.592 10.91 10.91 0 0015.43 15.43 5.889 5.889 0 018.327 8.327l-40.797 40.797a10.91 10.91 0 1015.43 15.429l40.799-40.8a27.505 27.505 0 008.084-19.591zm-21.785 28.867L419.91 453.8l11.23-11.231 18.82 3.2zm-21.528-.492l18.818 3.201-11.236 11.237-18.818-3.201zm35.199-13.493l-18.551-3.154 5.355-5.356a8.899 8.899 0 002.514-4.983l15.667-1.978.008.589a24.418 24.418 0 01-4.994 14.882zm-36.95-32.264a24.476 24.476 0 0114.59-7.032l-11.507 19.926a7.774 7.774 0 01-3.083-12.893zm17.383 8.389a8.943 8.943 0 00-6.372 2.621 7.734 7.734 0 01-4.502 2.21l11.772-20.39a24.502 24.502 0 0113.1 4.345l-11.55 11.551a9.217 9.217 0 00-2.448-.337zm5.414 1.79l11.051-11.052c.312.28.62.575.917.873a24.331 24.331 0 016.9 13.679l-15.459 1.952a8.882 8.882 0 00-2.45-4.621 9.106 9.106 0 00-.958-.831zm-39.838 65.382a7.794 7.794 0 010-11.01l4.847-4.848 18.818 3.201-12.658 12.659a7.793 7.793 0 01-11.007-.003z" transform="translate(-26.315 -14.664)"/><g><path class="cls-1" d="M80.447 737.408H47.533a12.498 12.498 0 01-12.25-10.043l-4.625-22.875a2.11 2.11 0 01.313-1.593 2.124 2.124 0 013.851.761l4.582 22.918h.004a8.333 8.333 0 008.125 6.664h32.914a8.326 8.326 0 008.168-6.707l4.582-22.918a2.126 2.126 0 014.168.836l-4.582 22.918v-.004a12.506 12.506 0 01-12.336 10.043z" transform="translate(-26.315 -14.664)"/><path class="cls-1" d="M61.908 712.408a18.75 18.75 0 01-14.773-7.293 12.5 12.5 0 11-12.206-21.207 17.797 17.797 0 01-.106-1.707 15.584 15.584 0 0116.938-15.563 19.772 19.772 0 0137.105 7.227 18.751 18.751 0 11-15 34.212 18.582 18.582 0 01-11.958 4.332zM47.615 697.97l1.605 2.813a14.583 14.583 0 0022.915 3.23l1.187-1.187 1.418.918v-.004a14.36 14.36 0 008 2.418 14.583 14.583 0 003.625-28.687l-1.543-.395v-1.562a15.604 15.604 0 00-29.938-5.813l-.668 1.52-1.644-.313a11.372 11.372 0 00-13.582 11.293 11.627 11.627 0 00.355 2.77l.563 2.207-2.25.375a8.334 8.334 0 108.062 13.043z" transform="translate(-26.315 -14.664)"/></g><g><path class="cls-1" d="M627.73 685.767c0-5.062-2.871-9.728-7.903-12.869-4.814-9-16.007-14.79-28.684-14.79-.81 0-1.612.025-2.41.069a8.821 8.821 0 00-9.262-3.773c-1.394-4.278-5.267-10.203-13.118-10.765a1.756 1.756 0 00-.252 3.503 11.483 11.483 0 012.483.461 11.258 11.258 0 017.04 6.61 15.16 15.16 0 01.597 1.629 8.859 8.859 0 00-3.734 7.04 25.95 25.95 0 00-10.037 10.012c-5.028 3.14-7.903 7.807-7.903 12.869 0 4.866 2.714 9.266 7.053 12.294l8.151 35.527a1.757 1.757 0 001.713 1.364l39.575.004a1.753 1.753 0 001.712-1.372l7.929-35.524c4.335-3.028 7.049-7.424 7.049-12.29zm-10.748 12.757l-7.35 32.924-36.765-.005-7.55-32.923zm1.947-3.516h-55.572c-3.263-2.36-5.29-5.633-5.29-9.24 0-3.934 2.41-7.624 6.618-10.112a1.748 1.748 0 00.671-.718 21.796 21.796 0 017.873-8.33 8.847 8.847 0 0016.855-4.954c.353-.009.706-.03 1.06-.03 11.396 0 21.76 5.35 25.786 13.314a1.75 1.75 0 00.67.719c4.205 2.492 6.618 6.178 6.618 10.112 0 3.607-2.025 6.883-5.289 9.24zM576 663.065a5.35 5.35 0 115.35 5.35 5.357 5.357 0 01-5.35-5.35z" transform="translate(-26.315 -14.664)"/><path class="cls-1" d="M571.534 678.714a1.755 1.755 0 10-2.61 2.349l4.012 4.456a1.755 1.755 0 002.61-2.348zM601.685 668.917a1.755 1.755 0 00-2.483.026l-4.644 4.735a1.756 1.756 0 002.51 2.457l4.644-4.735a1.755 1.755 0 00-.027-2.483zM609.584 681.75l-6.03 1.072a1.756 1.756 0 00.305 3.485 1.853 1.853 0 00.31-.026l6.03-1.072a1.757 1.757 0 00-.615-3.459zM578.76 704.805a1.757 1.757 0 10-3.454.64l3.642 19.72a1.757 1.757 0 001.725 1.437 1.647 1.647 0 00.323-.03 1.754 1.754 0 001.407-2.048zM593.643 705.123a1.756 1.756 0 00-3.511 0v19.719a1.756 1.756 0 103.511 0zM607.061 703.4a1.76 1.76 0 00-2.047 1.406l-3.643 19.719a1.76 1.76 0 001.408 2.047 1.616 1.616 0 00.322.03 1.76 1.76 0 001.725-1.437l3.642-19.718a1.752 1.752 0 00-1.407-2.048z" transform="translate(-26.315 -14.664)"/></g><path class="cls-1" d="M293.442 679.316c-9.012-3.004-11.156-7.485-13.43-12.23-1.91-3.989-3.88-8.114-9.625-10.98a2.06 2.06 0 00-1.637-.098 2.09 2.09 0 00-1.2 1.121l-7.792 17.758c-8.172-1.555-17.652 1.352-24.746 8.445s-9.996 16.574-8.442 24.746l-17.762 7.793a2.083 2.083 0 00.18 3.883c9.012 3.004 11.156 7.48 13.43 12.23h-.004a25.792 25.792 0 004.856 7.602 17.977 17.977 0 004.773 3.379 2.079 2.079 0 002.836-1.024l7.793-17.758c8.172 1.555 17.652-1.348 24.746-8.445 7.094-7.094 9.996-16.574 8.445-24.746l17.758-7.793a2.083 2.083 0 00-.18-3.883zm-61.434 58.805c-3.055-2.125-4.356-4.852-5.832-7.934-2.028-4.234-4.286-8.95-11.215-12.465l12.793-5.617a19.272 19.272 0 0010.89 10.89zm32.465-25.328c-8.934 8.933-22.152 10.258-29.461 2.945-7.313-7.309-5.989-20.527 2.945-29.461 8.934-8.934 22.152-10.258 29.461-2.945 7.312 7.308 5.988 20.527-2.945 29.46zm10.199-25.828a19.266 19.266 0 00-10.887-10.891l6.636-15.125c3.059 2.129 4.356 4.851 5.832 7.933 2.032 4.242 4.278 8.953 11.215 12.47z" transform="translate(-26.315 -14.664)"/><path class="cls-6" d="M460.513 683.414a27.682 27.682 0 00-47.274-19.592 10.91 10.91 0 0015.43 15.429 5.889 5.889 0 018.327 8.328l-40.797 40.796a10.91 10.91 0 1015.43 15.43l40.799-40.8a27.505 27.505 0 008.084-19.592zm-21.785 28.866l-18.818-3.2 11.23-11.232 18.82 3.201zm-21.528-.491l18.818 3.201-11.236 11.237-18.818-3.201zm35.199-13.493l-18.551-3.154 5.355-5.356a8.899 8.899 0 002.514-4.983l15.667-1.978.008.588a24.418 24.418 0 01-4.994 14.883zm-36.95-32.264a24.476 24.476 0 0114.59-7.033l-11.507 19.927a7.774 7.774 0 01-3.083-12.894zm17.383 8.389a8.943 8.943 0 00-6.372 2.62 7.734 7.734 0 01-4.502 2.21l11.772-20.39a24.502 24.502 0 0113.1 4.346l-11.55 11.55a9.217 9.217 0 00-2.448-.336zm5.414 1.79l11.051-11.052c.312.28.62.575.917.873a24.331 24.331 0 016.9 13.678l-15.459 1.953a8.882 8.882 0 00-2.45-4.621 9.106 9.106 0 00-.958-.832zm-39.838 65.381a7.794 7.794 0 010-11.01l4.847-4.847 18.818 3.201-12.658 12.659a7.793 7.793 0 01-11.007-.003z" transform="translate(-26.315 -14.664)"/></svg>